# xmcd
#
# Track frame offsets: 
#        150
#        15336
#        36051
#        50686
#        65152
#        78937
#        92306
#        106522
#        119357
#        132789
#        145270
#        160774
#        177404
#        192795
#        208144
#        230630
#
# Disc length: 3226 seconds
#
# Revision: 0
# Processed by: cddbd v1.5.2PL0 Copyright (c) Steve Scherf et al.
# Submitted via: ExactAudioCopy v1.0b1
#
DISCID=cf0c9810
DTITLE=Elgins - Back To Chicago
DYEAR=2011
DGENRE=Blues
TTITLE0=Ah'w Baby
TTITLE1=Sad, Sad Day
TTITLE2=Sad Hours
TTITLE3=She Loves Another Man
TTITLE4=Tin Pan Alley
TTITLE5=Tough Times
TTITLE6=Layaway Plan
TTITLE7=Can't Hold Out Much Longer
TTITLE8=Don't Have To Hunt
TTITLE9=Gypsy Woman
TTITLE10=Anna Lee
TTITLE11=Keep It To Yourself
TTITLE12=Playhouse
TTITLE13=Left Me With A Broken Heart
TTITLE14=Seems Like Million Years
TTITLE15=Juke
EXTD=
EXTT0=
EXTT1=
EXTT2=
EXTT3=
EXTT4=
EXTT5=
EXTT6=
EXTT7=
EXTT8=
EXTT9=
EXTT10=
EXTT11=
EXTT12=
EXTT13=
EXTT14=
EXTT15=
PLAYORDER=
